<?xml version="1.0" encoding="utf-8" standalone="no"?>
<!DOCTYPE svg PUBLIC "-//W3C//DTD SVG 1.1//EN"
  "http://www.w3.org/Graphics/SVG/1.1/DTD/svg11.dtd">
<svg xmlns:xlink="http://www.w3.org/1999/xlink" width="491.651094pt" height="208.309766pt" viewBox="0 0 491.651094 208.309766" xmlns="http://www.w3.org/2000/svg" version="1.1">
 <metadata>
  <rdf:RDF xmlns:dc="http://purl.org/dc/elements/1.1/" xmlns:cc="http://creativecommons.org/ns#" xmlns:rdf="http://www.w3.org/1999/02/22-rdf-syntax-ns#">
   <cc:Work>
    <dc:type rdf:resource="http://purl.org/dc/dcmitype/StillImage"/>
    <dc:date>2026-03-29T09:02:27.660205</dc:date>
    <dc:format>image/svg+xml</dc:format>
    <dc:creator>
     <cc:Agent>
      <dc:title>Matplotlib v3.10.1, https://matplotlib.org/</dc:title>
     </cc:Agent>
    </dc:creator>
   </cc:Work>
  </rdf:RDF>
 </metadata>
 <defs>
  <style type="text/css">*{stroke-linejoin: round; stroke-linecap: butt}</style>
 </defs>
 <g id="figure_1">
  <g id="patch_1">
   <path d="M 0 208.309766 
L 491.651094 208.309766 
L 491.651094 -0 
L 0 -0 
z
" style="fill: #ffffff"/>
  </g>
  <g id="axes_1">
   <g id="patch_2">
    <path d="M 38.051094 173.52 
L 484.451094 173.52 
L 484.451094 7.2 
L 38.051094 7.2 
z
" style="fill: #ffffff"/>
   </g>
   <g id="matplotlib.axis_1">
    <g id="xtick_1">
     <g id="line2d_1">
      <path d="M 58.342003 173.52 
L 58.342003 7.2 
" clip-path="url(#pd99ab1f20c)" style="fill: none; stroke-dasharray: 5.55,2.4; stroke-dashoffset: 0; stroke: #e6e6e6; stroke-width: 1.5"/>
     </g>
     <g id="line2d_2">
      <defs>
       <path id="m4de1e2fbe5" d="M 0 0 
L 0 9 
" style="stroke: #262626; stroke-width: 1.875"/>
      </defs>
      <g>
       <use xlink:href="#m4de1e2fbe5" x="58.342003" y="173.52" style="fill: #262626; stroke: #262626; stroke-width: 1.875"/>
      </g>
     </g>
     <g id="text_1">
      <!-- −2.0 -->
      <g style="fill: #262626" transform="translate(42.055987 197.830391) scale(0.165 -0.165)">
       <defs>
        <path id="ArialMT-2212" d="M 3381 1997 
L 356 1997 
L 356 2522 
L 3381 2522 
L 3381 1997 
z
" transform="scale(0.015625)"/>
        <path id="ArialMT-32" d="M 3222 541 
L 3222 0 
L 194 0 
Q 188 203 259 391 
Q 375 700 629 1000 
Q 884 1300 1366 1694 
Q 2113 2306 2375 2664 
Q 2638 3022 2638 3341 
Q 2638 3675 2398 3904 
Q 2159 4134 1775 4134 
Q 1369 4134 1125 3890 
Q 881 3647 878 3216 
L 300 3275 
Q 359 3922 746 4261 
Q 1134 4600 1788 4600 
Q 2447 4600 2831 4234 
Q 3216 3869 3216 3328 
Q 3216 3053 3103 2787 
Q 2991 2522 2730 2228 
Q 2469 1934 1863 1422 
Q 1356 997 1212 845 
Q 1069 694 975 541 
L 3222 541 
z
" transform="scale(0.015625)"/>
        <path id="ArialMT-2e" d="M 581 0 
L 581 641 
L 1222 641 
L 1222 0 
L 581 0 
z
" transform="scale(0.015625)"/>
        <path id="ArialMT-30" d="M 266 2259 
Q 266 3072 433 3567 
Q 600 4063 929 4331 
Q 1259 4600 1759 4600 
Q 2128 4600 2406 4451 
Q 2684 4303 2865 4023 
Q 3047 3744 3150 3342 
Q 3253 2941 3253 2259 
Q 3253 1453 3087 958 
Q 2922 463 2592 192 
Q 2263 -78 1759 -78 
Q 1097 -78 719 397 
Q 266 969 266 2259 
z
M 844 2259 
Q 844 1131 1108 757 
Q 1372 384 1759 384 
Q 2147 384 2411 759 
Q 2675 1134 2675 2259 
Q 2675 3391 2411 3762 
Q 2147 4134 1753 4134 
Q 1366 4134 1134 3806 
Q 844 3388 844 2259 
z
" transform="scale(0.015625)"/>
       </defs>
       <use xlink:href="#ArialMT-2212"/>
       <use xlink:href="#ArialMT-32" transform="translate(58.398438 0)"/>
       <use xlink:href="#ArialMT-2e" transform="translate(114.013672 0)"/>
       <use xlink:href="#ArialMT-30" transform="translate(141.796875 0)"/>
      </g>
     </g>
    </g>
    <g id="xtick_2">
     <g id="line2d_3">
      <path d="M 109.069276 173.52 
L 109.069276 7.2 
" clip-path="url(#pd99ab1f20c)" style="fill: none; stroke-dasharray: 5.55,2.4; stroke-dashoffset: 0; stroke: #e6e6e6; stroke-width: 1.5"/>
     </g>
     <g id="line2d_4">
      <g>
       <use xlink:href="#m4de1e2fbe5" x="109.069276" y="173.52" style="fill: #262626; stroke: #262626; stroke-width: 1.875"/>
      </g>
     </g>
     <g id="text_2">
      <!-- −1.5 -->
      <g style="fill: #262626" transform="translate(92.78326 197.830391) scale(0.165 -0.165)">
       <defs>
        <path id="ArialMT-31" d="M 2384 0 
L 1822 0 
L 1822 3584 
Q 1619 3391 1289 3197 
Q 959 3003 697 2906 
L 697 3450 
Q 1169 3672 1522 3987 
Q 1875 4303 2022 4600 
L 2384 4600 
L 2384 0 
z
" transform="scale(0.015625)"/>
        <path id="ArialMT-35" d="M 266 1200 
L 856 1250 
Q 922 819 1161 601 
Q 1400 384 1738 384 
Q 2144 384 2425 690 
Q 2706 997 2706 1503 
Q 2706 1984 2436 2262 
Q 2166 2541 1728 2541 
Q 1456 2541 1237 2417 
Q 1019 2294 894 2097 
L 366 2166 
L 809 4519 
L 3088 4519 
L 3088 3981 
L 1259 3981 
L 1013 2750 
Q 1425 3038 1878 3038 
Q 2478 3038 2890 2622 
Q 3303 2206 3303 1553 
Q 3303 931 2941 478 
Q 2500 -78 1738 -78 
Q 1113 -78 717 272 
Q 322 622 266 1200 
z
" transform="scale(0.015625)"/>
       </defs>
       <use xlink:href="#ArialMT-2212"/>
       <use xlink:href="#ArialMT-31" transform="translate(58.398438 0)"/>
       <use xlink:href="#ArialMT-2e" transform="translate(114.013672 0)"/>
       <use xlink:href="#ArialMT-35" transform="translate(141.796875 0)"/>
      </g>
     </g>
    </g>
    <g id="xtick_3">
     <g id="line2d_5">
      <path d="M 159.796548 173.52 
L 159.796548 7.2 
" clip-path="url(#pd99ab1f20c)" style="fill: none; stroke-dasharray: 5.55,2.4; stroke-dashoffset: 0; stroke: #e6e6e6; stroke-width: 1.5"/>
     </g>
     <g id="line2d_6">
      <g>
       <use xlink:href="#m4de1e2fbe5" x="159.796548" y="173.52" style="fill: #262626; stroke: #262626; stroke-width: 1.875"/>
      </g>
     </g>
     <g id="text_3">
      <!-- −1.0 -->
      <g style="fill: #262626" transform="translate(143.510533 197.830391) scale(0.165 -0.165)">
       <use xlink:href="#ArialMT-2212"/>
       <use xlink:href="#ArialMT-31" transform="translate(58.398438 0)"/>
       <use xlink:href="#ArialMT-2e" transform="translate(114.013672 0)"/>
       <use xlink:href="#ArialMT-30" transform="translate(141.796875 0)"/>
      </g>
     </g>
    </g>
    <g id="xtick_4">
     <g id="line2d_7">
      <path d="M 210.523821 173.52 
L 210.523821 7.2 
" clip-path="url(#pd99ab1f20c)" style="fill: none; stroke-dasharray: 5.55,2.4; stroke-dashoffset: 0; stroke: #e6e6e6; stroke-width: 1.5"/>
     </g>
     <g id="line2d_8">
      <g>
       <use xlink:href="#m4de1e2fbe5" x="210.523821" y="173.52" style="fill: #262626; stroke: #262626; stroke-width: 1.875"/>
      </g>
     </g>
     <g id="text_4">
      <!-- −0.5 -->
      <g style="fill: #262626" transform="translate(194.237805 197.830391) scale(0.165 -0.165)">
       <use xlink:href="#ArialMT-2212"/>
       <use xlink:href="#ArialMT-30" transform="translate(58.398438 0)"/>
       <use xlink:href="#ArialMT-2e" transform="translate(114.013672 0)"/>
       <use xlink:href="#ArialMT-35" transform="translate(141.796875 0)"/>
      </g>
     </g>
    </g>
    <g id="xtick_5">
     <g id="line2d_9">
      <path d="M 261.251094 173.52 
L 261.251094 7.2 
" clip-path="url(#pd99ab1f20c)" style="fill: none; stroke-dasharray: 5.55,2.4; stroke-dashoffset: 0; stroke: #e6e6e6; stroke-width: 1.5"/>
     </g>
     <g id="line2d_10">
      <g>
       <use xlink:href="#m4de1e2fbe5" x="261.251094" y="173.52" style="fill: #262626; stroke: #262626; stroke-width: 1.875"/>
      </g>
     </g>
     <g id="text_5">
      <!-- 0.0 -->
      <g style="fill: #262626" transform="translate(249.783594 197.830391) scale(0.165 -0.165)">
       <use xlink:href="#ArialMT-30"/>
       <use xlink:href="#ArialMT-2e" transform="translate(55.615234 0)"/>
       <use xlink:href="#ArialMT-30" transform="translate(83.398438 0)"/>
      </g>
     </g>
    </g>
    <g id="xtick_6">
     <g id="line2d_11">
      <path d="M 311.978366 173.52 
L 311.978366 7.2 
" clip-path="url(#pd99ab1f20c)" style="fill: none; stroke-dasharray: 5.55,2.4; stroke-dashoffset: 0; stroke: #e6e6e6; stroke-width: 1.5"/>
     </g>
     <g id="line2d_12">
      <g>
       <use xlink:href="#m4de1e2fbe5" x="311.978366" y="173.52" style="fill: #262626; stroke: #262626; stroke-width: 1.875"/>
      </g>
     </g>
     <g id="text_6">
      <!-- 0.5 -->
      <g style="fill: #262626" transform="translate(300.510866 197.830391) scale(0.165 -0.165)">
       <use xlink:href="#ArialMT-30"/>
       <use xlink:href="#ArialMT-2e" transform="translate(55.615234 0)"/>
       <use xlink:href="#ArialMT-35" transform="translate(83.398438 0)"/>
      </g>
     </g>
    </g>
    <g id="xtick_7">
     <g id="line2d_13">
      <path d="M 362.705639 173.52 
L 362.705639 7.2 
" clip-path="url(#pd99ab1f20c)" style="fill: none; stroke-dasharray: 5.55,2.4; stroke-dashoffset: 0; stroke: #e6e6e6; stroke-width: 1.5"/>
     </g>
     <g id="line2d_14">
      <g>
       <use xlink:href="#m4de1e2fbe5" x="362.705639" y="173.52" style="fill: #262626; stroke: #262626; stroke-width: 1.875"/>
      </g>
     </g>
     <g id="text_7">
      <!-- 1.0 -->
      <g style="fill: #262626" transform="translate(351.238139 197.830391) scale(0.165 -0.165)">
       <use xlink:href="#ArialMT-31"/>
       <use xlink:href="#ArialMT-2e" transform="translate(55.615234 0)"/>
       <use xlink:href="#ArialMT-30" transform="translate(83.398438 0)"/>
      </g>
     </g>
    </g>
    <g id="xtick_8">
     <g id="line2d_15">
      <path d="M 413.432912 173.52 
L 413.432912 7.2 
" clip-path="url(#pd99ab1f20c)" style="fill: none; stroke-dasharray: 5.55,2.4; stroke-dashoffset: 0; stroke: #e6e6e6; stroke-width: 1.5"/>
     </g>
     <g id="line2d_16">
      <g>
       <use xlink:href="#m4de1e2fbe5" x="413.432912" y="173.52" style="fill: #262626; stroke: #262626; stroke-width: 1.875"/>
      </g>
     </g>
     <g id="text_8">
      <!-- 1.5 -->
      <g style="fill: #262626" transform="translate(401.965412 197.830391) scale(0.165 -0.165)">
       <use xlink:href="#ArialMT-31"/>
       <use xlink:href="#ArialMT-2e" transform="translate(55.615234 0)"/>
       <use xlink:href="#ArialMT-35" transform="translate(83.398438 0)"/>
      </g>
     </g>
    </g>
    <g id="xtick_9">
     <g id="line2d_17">
      <path d="M 464.160185 173.52 
L 464.160185 7.2 
" clip-path="url(#pd99ab1f20c)" style="fill: none; stroke-dasharray: 5.55,2.4; stroke-dashoffset: 0; stroke: #e6e6e6; stroke-width: 1.5"/>
     </g>
     <g id="line2d_18">
      <g>
       <use xlink:href="#m4de1e2fbe5" x="464.160185" y="173.52" style="fill: #262626; stroke: #262626; stroke-width: 1.875"/>
      </g>
     </g>
     <g id="text_9">
      <!-- 2.0 -->
      <g style="fill: #262626" transform="translate(452.692685 197.830391) scale(0.165 -0.165)">
       <use xlink:href="#ArialMT-32"/>
       <use xlink:href="#ArialMT-2e" transform="translate(55.615234 0)"/>
       <use xlink:href="#ArialMT-30" transform="translate(83.398438 0)"/>
      </g>
     </g>
    </g>
   </g>
   <g id="matplotlib.axis_2">
    <g id="ytick_1">
     <g id="line2d_19">
      <path d="M 38.051094 173.52 
L 484.451094 173.52 
" clip-path="url(#pd99ab1f20c)" style="fill: none; stroke-dasharray: 5.55,2.4; stroke-dashoffset: 0; stroke: #e6e6e6; stroke-width: 1.5"/>
     </g>
     <g id="line2d_20">
      <defs>
       <path id="m5a2080e40a" d="M 0 0 
L -9 0 
" style="stroke: #262626; stroke-width: 1.875"/>
      </defs>
      <g>
       <use xlink:href="#m5a2080e40a" x="38.051094" y="173.52" style="fill: #262626; stroke: #262626; stroke-width: 1.875"/>
      </g>
     </g>
     <g id="text_10">
      <!-- 0 -->
      <g style="fill: #262626" transform="translate(16.375547 179.425195) scale(0.165 -0.165)">
       <use xlink:href="#ArialMT-30"/>
      </g>
     </g>
    </g>
    <g id="ytick_2">
     <g id="line2d_21">
      <path d="M 38.051094 133.92 
L 484.451094 133.92 
" clip-path="url(#pd99ab1f20c)" style="fill: none; stroke-dasharray: 5.55,2.4; stroke-dashoffset: 0; stroke: #e6e6e6; stroke-width: 1.5"/>
     </g>
     <g id="line2d_22">
      <g>
       <use xlink:href="#m5a2080e40a" x="38.051094" y="133.92" style="fill: #262626; stroke: #262626; stroke-width: 1.875"/>
      </g>
     </g>
     <g id="text_11">
      <!-- 10 -->
      <g style="fill: #262626" transform="translate(7.2 139.825195) scale(0.165 -0.165)">
       <use xlink:href="#ArialMT-31"/>
       <use xlink:href="#ArialMT-30" transform="translate(55.615234 0)"/>
      </g>
     </g>
    </g>
    <g id="ytick_3">
     <g id="line2d_23">
      <path d="M 38.051094 94.32 
L 484.451094 94.32 
" clip-path="url(#pd99ab1f20c)" style="fill: none; stroke-dasharray: 5.55,2.4; stroke-dashoffset: 0; stroke: #e6e6e6; stroke-width: 1.5"/>
     </g>
     <g id="line2d_24">
      <g>
       <use xlink:href="#m5a2080e40a" x="38.051094" y="94.32" style="fill: #262626; stroke: #262626; stroke-width: 1.875"/>
      </g>
     </g>
     <g id="text_12">
      <!-- 20 -->
      <g style="fill: #262626" transform="translate(7.2 100.225195) scale(0.165 -0.165)">
       <use xlink:href="#ArialMT-32"/>
       <use xlink:href="#ArialMT-30" transform="translate(55.615234 0)"/>
      </g>
     </g>
    </g>
    <g id="ytick_4">
     <g id="line2d_25">
      <path d="M 38.051094 54.72 
L 484.451094 54.72 
" clip-path="url(#pd99ab1f20c)" style="fill: none; stroke-dasharray: 5.55,2.4; stroke-dashoffset: 0; stroke: #e6e6e6; stroke-width: 1.5"/>
     </g>
     <g id="line2d_26">
      <g>
       <use xlink:href="#m5a2080e40a" x="38.051094" y="54.72" style="fill: #262626; stroke: #262626; stroke-width: 1.875"/>
      </g>
     </g>
     <g id="text_13">
      <!-- 30 -->
      <g style="fill: #262626" transform="translate(7.2 60.625195) scale(0.165 -0.165)">
       <defs>
        <path id="ArialMT-33" d="M 269 1209 
L 831 1284 
Q 928 806 1161 595 
Q 1394 384 1728 384 
Q 2125 384 2398 659 
Q 2672 934 2672 1341 
Q 2672 1728 2419 1979 
Q 2166 2231 1775 2231 
Q 1616 2231 1378 2169 
L 1441 2663 
Q 1497 2656 1531 2656 
Q 1891 2656 2178 2843 
Q 2466 3031 2466 3422 
Q 2466 3731 2256 3934 
Q 2047 4138 1716 4138 
Q 1388 4138 1169 3931 
Q 950 3725 888 3313 
L 325 3413 
Q 428 3978 793 4289 
Q 1159 4600 1703 4600 
Q 2078 4600 2393 4439 
Q 2709 4278 2876 4000 
Q 3044 3722 3044 3409 
Q 3044 3113 2884 2869 
Q 2725 2625 2413 2481 
Q 2819 2388 3044 2092 
Q 3269 1797 3269 1353 
Q 3269 753 2831 336 
Q 2394 -81 1725 -81 
Q 1122 -81 723 278 
Q 325 638 269 1209 
z
" transform="scale(0.015625)"/>
       </defs>
       <use xlink:href="#ArialMT-33"/>
       <use xlink:href="#ArialMT-30" transform="translate(55.615234 0)"/>
      </g>
     </g>
    </g>
    <g id="ytick_5">
     <g id="line2d_27">
      <path d="M 38.051094 15.12 
L 484.451094 15.12 
" clip-path="url(#pd99ab1f20c)" style="fill: none; stroke-dasharray: 5.55,2.4; stroke-dashoffset: 0; stroke: #e6e6e6; stroke-width: 1.5"/>
     </g>
     <g id="line2d_28">
      <g>
       <use xlink:href="#m5a2080e40a" x="38.051094" y="15.12" style="fill: #262626; stroke: #262626; stroke-width: 1.875"/>
      </g>
     </g>
     <g id="text_14">
      <!-- 40 -->
      <g style="fill: #262626" transform="translate(7.2 21.025195) scale(0.165 -0.165)">
       <defs>
        <path id="ArialMT-34" d="M 2069 0 
L 2069 1097 
L 81 1097 
L 81 1613 
L 2172 4581 
L 2631 4581 
L 2631 1613 
L 3250 1613 
L 3250 1097 
L 2631 1097 
L 2631 0 
L 2069 0 
z
M 2069 1613 
L 2069 3678 
L 634 1613 
L 2069 1613 
z
" transform="scale(0.015625)"/>
       </defs>
       <use xlink:href="#ArialMT-34"/>
       <use xlink:href="#ArialMT-30" transform="translate(55.615234 0)"/>
      </g>
     </g>
    </g>
   </g>
   <g id="patch_3">
    <path d="M 58.342003 173.52 
L 79.700855 173.52 
L 79.700855 173.52 
L 58.342003 173.52 
z
" clip-path="url(#pd99ab1f20c)" style="stroke: #ffffff; stroke-width: 1.5; stroke-linejoin: miter"/>
   </g>
   <g id="patch_4">
    <path d="M 79.700855 173.52 
L 101.059706 173.52 
L 101.059706 173.52 
L 79.700855 173.52 
z
" clip-path="url(#pd99ab1f20c)" style="stroke: #ffffff; stroke-width: 1.5; stroke-linejoin: miter"/>
   </g>
   <g id="patch_5">
    <path d="M 101.059706 173.52 
L 122.418558 173.52 
L 122.418558 173.52 
L 101.059706 173.52 
z
" clip-path="url(#pd99ab1f20c)" style="stroke: #ffffff; stroke-width: 1.5; stroke-linejoin: miter"/>
   </g>
   <g id="patch_6">
    <path d="M 122.418558 173.52 
L 143.77741 173.52 
L 143.77741 173.52 
L 122.418558 173.52 
z
" clip-path="url(#pd99ab1f20c)" style="stroke: #ffffff; stroke-width: 1.5; stroke-linejoin: miter"/>
   </g>
   <g id="patch_7">
    <path d="M 143.77741 173.52 
L 165.136261 173.52 
L 165.136261 173.52 
L 143.77741 173.52 
z
" clip-path="url(#pd99ab1f20c)" style="stroke: #ffffff; stroke-width: 1.5; stroke-linejoin: miter"/>
   </g>
   <g id="patch_8">
    <path d="M 165.136261 173.52 
L 186.495113 173.52 
L 186.495113 173.52 
L 165.136261 173.52 
z
" clip-path="url(#pd99ab1f20c)" style="stroke: #ffffff; stroke-width: 1.5; stroke-linejoin: miter"/>
   </g>
   <g id="patch_9">
    <path d="M 186.495113 173.52 
L 207.853965 173.52 
L 207.853965 173.52 
L 186.495113 173.52 
z
" clip-path="url(#pd99ab1f20c)" style="stroke: #ffffff; stroke-width: 1.5; stroke-linejoin: miter"/>
   </g>
   <g id="patch_10">
    <path d="M 207.853965 173.52 
L 229.212816 173.52 
L 229.212816 165.6 
L 207.853965 165.6 
z
" clip-path="url(#pd99ab1f20c)" style="stroke: #ffffff; stroke-width: 1.5; stroke-linejoin: miter"/>
   </g>
   <g id="patch_11">
    <path d="M 229.212816 173.52 
L 250.571668 173.52 
L 250.571668 126 
L 229.212816 126 
z
" clip-path="url(#pd99ab1f20c)" style="stroke: #ffffff; stroke-width: 1.5; stroke-linejoin: miter"/>
   </g>
   <g id="patch_12">
    <path d="M 250.571668 173.52 
L 271.93052 173.52 
L 271.93052 15.12 
L 250.571668 15.12 
z
" clip-path="url(#pd99ab1f20c)" style="stroke: #ffffff; stroke-width: 1.5; stroke-linejoin: miter"/>
   </g>
   <g id="patch_13">
    <path d="M 271.93052 173.52 
L 293.289371 173.52 
L 293.289371 30.96 
L 271.93052 30.96 
z
" clip-path="url(#pd99ab1f20c)" style="stroke: #ffffff; stroke-width: 1.5; stroke-linejoin: miter"/>
   </g>
   <g id="patch_14">
    <path d="M 293.289371 173.52 
L 314.648223 173.52 
L 314.648223 137.88 
L 293.289371 137.88 
z
" clip-path="url(#pd99ab1f20c)" style="stroke: #ffffff; stroke-width: 1.5; stroke-linejoin: miter"/>
   </g>
   <g id="patch_15">
    <path d="M 314.648223 173.52 
L 336.007075 173.52 
L 336.007075 169.56 
L 314.648223 169.56 
z
" clip-path="url(#pd99ab1f20c)" style="stroke: #ffffff; stroke-width: 1.5; stroke-linejoin: miter"/>
   </g>
   <g id="patch_16">
    <path d="M 336.007075 173.52 
L 357.365926 173.52 
L 357.365926 173.52 
L 336.007075 173.52 
z
" clip-path="url(#pd99ab1f20c)" style="stroke: #ffffff; stroke-width: 1.5; stroke-linejoin: miter"/>
   </g>
   <g id="patch_17">
    <path d="M 357.365926 173.52 
L 378.724778 173.52 
L 378.724778 173.52 
L 357.365926 173.52 
z
" clip-path="url(#pd99ab1f20c)" style="stroke: #ffffff; stroke-width: 1.5; stroke-linejoin: miter"/>
   </g>
   <g id="patch_18">
    <path d="M 378.724778 173.52 
L 400.08363 173.52 
L 400.08363 173.52 
L 378.724778 173.52 
z
" clip-path="url(#pd99ab1f20c)" style="stroke: #ffffff; stroke-width: 1.5; stroke-linejoin: miter"/>
   </g>
   <g id="patch_19">
    <path d="M 400.08363 173.52 
L 421.442481 173.52 
L 421.442481 173.52 
L 400.08363 173.52 
z
" clip-path="url(#pd99ab1f20c)" style="stroke: #ffffff; stroke-width: 1.5; stroke-linejoin: miter"/>
   </g>
   <g id="patch_20">
    <path d="M 421.442481 173.52 
L 442.801333 173.52 
L 442.801333 173.52 
L 421.442481 173.52 
z
" clip-path="url(#pd99ab1f20c)" style="stroke: #ffffff; stroke-width: 1.5; stroke-linejoin: miter"/>
   </g>
   <g id="patch_21">
    <path d="M 442.801333 173.52 
L 464.160185 173.52 
L 464.160185 173.52 
L 442.801333 173.52 
z
" clip-path="url(#pd99ab1f20c)" style="stroke: #ffffff; stroke-width: 1.5; stroke-linejoin: miter"/>
   </g>
   <g id="patch_22">
    <path d="M 58.342003 173.52 
L 79.700855 173.52 
L 79.700855 173.52 
L 58.342003 173.52 
z
" clip-path="url(#pd99ab1f20c)" style="fill: #d95f02; stroke: #ffffff; stroke-width: 1.5; stroke-linejoin: miter"/>
   </g>
   <g id="patch_23">
    <path d="M 79.700855 173.52 
L 101.059706 173.52 
L 101.059706 173.52 
L 79.700855 173.52 
z
" clip-path="url(#pd99ab1f20c)" style="fill: #d95f02; stroke: #ffffff; stroke-width: 1.5; stroke-linejoin: miter"/>
   </g>
   <g id="patch_24">
    <path d="M 101.059706 173.52 
L 122.418558 173.52 
L 122.418558 173.52 
L 101.059706 173.52 
z
" clip-path="url(#pd99ab1f20c)" style="fill: #d95f02; stroke: #ffffff; stroke-width: 1.5; stroke-linejoin: miter"/>
   </g>
   <g id="patch_25">
    <path d="M 122.418558 173.52 
L 143.77741 173.52 
L 143.77741 173.52 
L 122.418558 173.52 
z
" clip-path="url(#pd99ab1f20c)" style="fill: #d95f02; stroke: #ffffff; stroke-width: 1.5; stroke-linejoin: miter"/>
   </g>
   <g id="patch_26">
    <path d="M 143.77741 173.52 
L 165.136261 173.52 
L 165.136261 173.52 
L 143.77741 173.52 
z
" clip-path="url(#pd99ab1f20c)" style="fill: #d95f02; stroke: #ffffff; stroke-width: 1.5; stroke-linejoin: miter"/>
   </g>
   <g id="patch_27">
    <path d="M 165.136261 173.52 
L 186.495113 173.52 
L 186.495113 173.52 
L 165.136261 173.52 
z
" clip-path="url(#pd99ab1f20c)" style="fill: #d95f02; stroke: #ffffff; stroke-width: 1.5; stroke-linejoin: miter"/>
   </g>
   <g id="patch_28">
    <path d="M 186.495113 173.52 
L 207.853965 173.52 
L 207.853965 173.52 
L 186.495113 173.52 
z
" clip-path="url(#pd99ab1f20c)" style="fill: #d95f02; stroke: #ffffff; stroke-width: 1.5; stroke-linejoin: miter"/>
   </g>
   <g id="patch_29">
    <path d="M 207.853965 173.52 
L 229.212816 173.52 
L 229.212816 173.52 
L 207.853965 173.52 
z
" clip-path="url(#pd99ab1f20c)" style="fill: #d95f02; stroke: #ffffff; stroke-width: 1.5; stroke-linejoin: miter"/>
   </g>
   <g id="patch_30">
    <path d="M 229.212816 173.52 
L 250.571668 173.52 
L 250.571668 169.56 
L 229.212816 169.56 
z
" clip-path="url(#pd99ab1f20c)" style="fill: #d95f02; stroke: #ffffff; stroke-width: 1.5; stroke-linejoin: miter"/>
   </g>
   <g id="patch_31">
    <path d="M 250.571668 173.52 
L 271.93052 173.52 
L 271.93052 165.6 
L 250.571668 165.6 
z
" clip-path="url(#pd99ab1f20c)" style="fill: #d95f02; stroke: #ffffff; stroke-width: 1.5; stroke-linejoin: miter"/>
   </g>
   <g id="patch_32">
    <path d="M 271.93052 173.52 
L 293.289371 173.52 
L 293.289371 141.84 
L 271.93052 141.84 
z
" clip-path="url(#pd99ab1f20c)" style="fill: #d95f02; stroke: #ffffff; stroke-width: 1.5; stroke-linejoin: miter"/>
   </g>
   <g id="patch_33">
    <path d="M 293.289371 173.52 
L 314.648223 173.52 
L 314.648223 122.04 
L 293.289371 122.04 
z
" clip-path="url(#pd99ab1f20c)" style="fill: #d95f02; stroke: #ffffff; stroke-width: 1.5; stroke-linejoin: miter"/>
   </g>
   <g id="patch_34">
    <path d="M 314.648223 173.52 
L 336.007075 173.52 
L 336.007075 98.28 
L 314.648223 98.28 
z
" clip-path="url(#pd99ab1f20c)" style="fill: #d95f02; stroke: #ffffff; stroke-width: 1.5; stroke-linejoin: miter"/>
   </g>
   <g id="patch_35">
    <path d="M 336.007075 173.52 
L 357.365926 173.52 
L 357.365926 110.16 
L 336.007075 110.16 
z
" clip-path="url(#pd99ab1f20c)" style="fill: #d95f02; stroke: #ffffff; stroke-width: 1.5; stroke-linejoin: miter"/>
   </g>
   <g id="patch_36">
    <path d="M 357.365926 173.52 
L 378.724778 173.52 
L 378.724778 98.28 
L 357.365926 98.28 
z
" clip-path="url(#pd99ab1f20c)" style="fill: #d95f02; stroke: #ffffff; stroke-width: 1.5; stroke-linejoin: miter"/>
   </g>
   <g id="patch_37">
    <path d="M 378.724778 173.52 
L 400.08363 173.52 
L 400.08363 126 
L 378.724778 126 
z
" clip-path="url(#pd99ab1f20c)" style="fill: #d95f02; stroke: #ffffff; stroke-width: 1.5; stroke-linejoin: miter"/>
   </g>
   <g id="patch_38">
    <path d="M 400.08363 173.52 
L 421.442481 173.52 
L 421.442481 153.72 
L 400.08363 153.72 
z
" clip-path="url(#pd99ab1f20c)" style="fill: #d95f02; stroke: #ffffff; stroke-width: 1.5; stroke-linejoin: miter"/>
   </g>
   <g id="patch_39">
    <path d="M 421.442481 173.52 
L 442.801333 173.52 
L 442.801333 157.68 
L 421.442481 157.68 
z
" clip-path="url(#pd99ab1f20c)" style="fill: #d95f02; stroke: #ffffff; stroke-width: 1.5; stroke-linejoin: miter"/>
   </g>
   <g id="patch_40">
    <path d="M 442.801333 173.52 
L 464.160185 173.52 
L 464.160185 169.56 
L 442.801333 169.56 
z
" clip-path="url(#pd99ab1f20c)" style="fill: #d95f02; stroke: #ffffff; stroke-width: 1.5; stroke-linejoin: miter"/>
   </g>
   <g id="line2d_29">
    <path d="M 175.401327 173.52 
L 175.401327 7.2 
" clip-path="url(#pd99ab1f20c)" style="fill: none; stroke-dasharray: 11.1,4.8; stroke-dashoffset: 0; stroke: #000000; stroke-width: 3"/>
   </g>
   <g id="patch_41">
    <path d="M 38.051094 173.52 
L 38.051094 7.2 
" style="fill: none; stroke: #999999; stroke-width: 1.875; stroke-linejoin: miter; stroke-linecap: square"/>
   </g>
   <g id="patch_42">
    <path d="M 484.451094 173.52 
L 484.451094 7.2 
" style="fill: none; stroke: #999999; stroke-width: 1.875; stroke-linejoin: miter; stroke-linecap: square"/>
   </g>
   <g id="patch_43">
    <path d="M 38.051094 173.52 
L 484.451094 173.52 
" style="fill: none; stroke: #999999; stroke-width: 1.875; stroke-linejoin: miter; stroke-linecap: square"/>
   </g>
   <g id="patch_44">
    <path d="M 38.051094 7.2 
L 484.451094 7.2 
" style="fill: none; stroke: #999999; stroke-width: 1.875; stroke-linejoin: miter; stroke-linecap: square"/>
   </g>
  </g>
 </g>
 <defs>
  <clipPath id="pd99ab1f20c">
   <rect x="38.051094" y="7.2" width="446.4" height="166.32"/>
  </clipPath>
 </defs>
</svg>
