<?xml version="1.0" encoding="utf-8" standalone="no"?>
<!DOCTYPE svg PUBLIC "-//W3C//DTD SVG 1.1//EN"
  "http://www.w3.org/Graphics/SVG/1.1/DTD/svg11.dtd">
<svg xmlns:xlink="http://www.w3.org/1999/xlink" width="720pt" height="216pt" viewBox="0 0 720 216" xmlns="http://www.w3.org/2000/svg" version="1.1">
 <metadata>
  <rdf:RDF xmlns:dc="http://purl.org/dc/elements/1.1/" xmlns:cc="http://creativecommons.org/ns#" xmlns:rdf="http://www.w3.org/1999/02/22-rdf-syntax-ns#">
   <cc:Work>
    <dc:type rdf:resource="http://purl.org/dc/dcmitype/StillImage"/>
    <dc:date>2026-03-30T19:26:49.646468</dc:date>
    <dc:format>image/svg+xml</dc:format>
    <dc:creator>
     <cc:Agent>
      <dc:title>Matplotlib v3.10.1, https://matplotlib.org/</dc:title>
     </cc:Agent>
    </dc:creator>
   </cc:Work>
  </rdf:RDF>
 </metadata>
 <defs>
  <style type="text/css">*{stroke-linejoin: round; stroke-linecap: butt}</style>
 </defs>
 <g id="figure_1">
  <g id="patch_1">
   <path d="M 0 216 
L 720 216 
L 720 0 
L 0 0 
z
" style="fill: #ffffff"/>
  </g>
  <g id="axes_1">
   <g id="patch_2">
    <path d="M 56.24 172.9 
L 241.523333 172.9 
L 241.523333 16.2 
L 56.24 16.2 
z
" style="fill: #ffffff"/>
   </g>
   <g id="matplotlib.axis_1">
    <g id="xtick_1">
     <g id="line2d_1">
      <path d="M 64.66197 172.9 
L 64.66197 16.2 
" clip-path="url(#pa2dabfe208)" style="fill: none; stroke-dasharray: 5.55,2.4; stroke-dashoffset: 0; stroke: #e6e6e6; stroke-width: 1.5"/>
     </g>
     <g id="line2d_2">
      <defs>
       <path id="m744be610cb" d="M 0 0 
L 0 9 
" style="stroke: #262626; stroke-width: 1.875"/>
      </defs>
      <g>
       <use xlink:href="#m744be610cb" x="64.66197" y="172.9" style="fill: #262626; stroke: #262626; stroke-width: 1.875"/>
      </g>
     </g>
     <g id="text_1">
      <!-- 0 -->
      <g style="fill: #262626" transform="translate(60.074196 197.210391) scale(0.165 -0.165)">
       <defs>
        <path id="ArialMT-30" d="M 266 2259 
Q 266 3072 433 3567 
Q 600 4063 929 4331 
Q 1259 4600 1759 4600 
Q 2128 4600 2406 4451 
Q 2684 4303 2865 4023 
Q 3047 3744 3150 3342 
Q 3253 2941 3253 2259 
Q 3253 1453 3087 958 
Q 2922 463 2592 192 
Q 2263 -78 1759 -78 
Q 1097 -78 719 397 
Q 266 969 266 2259 
z
M 844 2259 
Q 844 1131 1108 757 
Q 1372 384 1759 384 
Q 2147 384 2411 759 
Q 2675 1134 2675 2259 
Q 2675 3391 2411 3762 
Q 2147 4134 1753 4134 
Q 1366 4134 1134 3806 
Q 844 3388 844 2259 
z
" transform="scale(0.015625)"/>
       </defs>
       <use xlink:href="#ArialMT-30"/>
      </g>
     </g>
    </g>
    <g id="xtick_2">
     <g id="line2d_3">
      <path d="M 148.881667 172.9 
L 148.881667 16.2 
" clip-path="url(#pa2dabfe208)" style="fill: none; stroke-dasharray: 5.55,2.4; stroke-dashoffset: 0; stroke: #e6e6e6; stroke-width: 1.5"/>
     </g>
     <g id="line2d_4">
      <g>
       <use xlink:href="#m744be610cb" x="148.881667" y="172.9" style="fill: #262626; stroke: #262626; stroke-width: 1.875"/>
      </g>
     </g>
     <g id="text_2">
      <!-- 125 -->
      <g style="fill: #262626" transform="translate(135.118346 197.210391) scale(0.165 -0.165)">
       <defs>
        <path id="ArialMT-31" d="M 2384 0 
L 1822 0 
L 1822 3584 
Q 1619 3391 1289 3197 
Q 959 3003 697 2906 
L 697 3450 
Q 1169 3672 1522 3987 
Q 1875 4303 2022 4600 
L 2384 4600 
L 2384 0 
z
" transform="scale(0.015625)"/>
        <path id="ArialMT-32" d="M 3222 541 
L 3222 0 
L 194 0 
Q 188 203 259 391 
Q 375 700 629 1000 
Q 884 1300 1366 1694 
Q 2113 2306 2375 2664 
Q 2638 3022 2638 3341 
Q 2638 3675 2398 3904 
Q 2159 4134 1775 4134 
Q 1369 4134 1125 3890 
Q 881 3647 878 3216 
L 300 3275 
Q 359 3922 746 4261 
Q 1134 4600 1788 4600 
Q 2447 4600 2831 4234 
Q 3216 3869 3216 3328 
Q 3216 3053 3103 2787 
Q 2991 2522 2730 2228 
Q 2469 1934 1863 1422 
Q 1356 997 1212 845 
Q 1069 694 975 541 
L 3222 541 
z
" transform="scale(0.015625)"/>
        <path id="ArialMT-35" d="M 266 1200 
L 856 1250 
Q 922 819 1161 601 
Q 1400 384 1738 384 
Q 2144 384 2425 690 
Q 2706 997 2706 1503 
Q 2706 1984 2436 2262 
Q 2166 2541 1728 2541 
Q 1456 2541 1237 2417 
Q 1019 2294 894 2097 
L 366 2166 
L 809 4519 
L 3088 4519 
L 3088 3981 
L 1259 3981 
L 1013 2750 
Q 1425 3038 1878 3038 
Q 2478 3038 2890 2622 
Q 3303 2206 3303 1553 
Q 3303 931 2941 478 
Q 2500 -78 1738 -78 
Q 1113 -78 717 272 
Q 322 622 266 1200 
z
" transform="scale(0.015625)"/>
       </defs>
       <use xlink:href="#ArialMT-31"/>
       <use xlink:href="#ArialMT-32" transform="translate(55.615234 0)"/>
       <use xlink:href="#ArialMT-35" transform="translate(111.230469 0)"/>
      </g>
     </g>
    </g>
    <g id="xtick_3">
     <g id="line2d_5">
      <path d="M 233.101364 172.9 
L 233.101364 16.2 
" clip-path="url(#pa2dabfe208)" style="fill: none; stroke-dasharray: 5.55,2.4; stroke-dashoffset: 0; stroke: #e6e6e6; stroke-width: 1.5"/>
     </g>
     <g id="line2d_6">
      <g>
       <use xlink:href="#m744be610cb" x="233.101364" y="172.9" style="fill: #262626; stroke: #262626; stroke-width: 1.875"/>
      </g>
     </g>
     <g id="text_3">
      <!-- 250 -->
      <g style="fill: #262626" transform="translate(219.338043 197.210391) scale(0.165 -0.165)">
       <use xlink:href="#ArialMT-32"/>
       <use xlink:href="#ArialMT-35" transform="translate(55.615234 0)"/>
       <use xlink:href="#ArialMT-30" transform="translate(111.230469 0)"/>
      </g>
     </g>
    </g>
   </g>
   <g id="matplotlib.axis_2">
    <g id="ytick_1">
     <g id="line2d_7">
      <path d="M 56.24 172.9 
L 241.523333 172.9 
" clip-path="url(#pa2dabfe208)" style="fill: none; stroke-dasharray: 5.55,2.4; stroke-dashoffset: 0; stroke: #e6e6e6; stroke-width: 1.5"/>
     </g>
     <g id="line2d_8">
      <defs>
       <path id="m363e707d10" d="M 0 0 
L -9 0 
" style="stroke: #262626; stroke-width: 1.875"/>
      </defs>
      <g>
       <use xlink:href="#m363e707d10" x="56.24" y="172.9" style="fill: #262626; stroke: #262626; stroke-width: 1.875"/>
      </g>
     </g>
     <g id="text_4">
      <!-- 0 -->
      <g style="fill: #262626" transform="translate(34.564453 178.805195) scale(0.165 -0.165)">
       <use xlink:href="#ArialMT-30"/>
      </g>
     </g>
    </g>
    <g id="ytick_2">
     <g id="line2d_9">
      <path d="M 56.24 115.279114 
L 241.523333 115.279114 
" clip-path="url(#pa2dabfe208)" style="fill: none; stroke-dasharray: 5.55,2.4; stroke-dashoffset: 0; stroke: #e6e6e6; stroke-width: 1.5"/>
     </g>
     <g id="line2d_10">
      <g>
       <use xlink:href="#m363e707d10" x="56.24" y="115.279114" style="fill: #262626; stroke: #262626; stroke-width: 1.875"/>
      </g>
     </g>
     <g id="text_5">
      <!-- 200 -->
      <g style="fill: #262626" transform="translate(16.213359 121.184309) scale(0.165 -0.165)">
       <use xlink:href="#ArialMT-32"/>
       <use xlink:href="#ArialMT-30" transform="translate(55.615234 0)"/>
       <use xlink:href="#ArialMT-30" transform="translate(111.230469 0)"/>
      </g>
     </g>
    </g>
    <g id="ytick_3">
     <g id="line2d_11">
      <path d="M 56.24 57.658228 
L 241.523333 57.658228 
" clip-path="url(#pa2dabfe208)" style="fill: none; stroke-dasharray: 5.55,2.4; stroke-dashoffset: 0; stroke: #e6e6e6; stroke-width: 1.5"/>
     </g>
     <g id="line2d_12">
      <g>
       <use xlink:href="#m363e707d10" x="56.24" y="57.658228" style="fill: #262626; stroke: #262626; stroke-width: 1.875"/>
      </g>
     </g>
     <g id="text_6">
      <!-- 400 -->
      <g style="fill: #262626" transform="translate(16.213359 63.563423) scale(0.165 -0.165)">
       <defs>
        <path id="ArialMT-34" d="M 2069 0 
L 2069 1097 
L 81 1097 
L 81 1613 
L 2172 4581 
L 2631 4581 
L 2631 1613 
L 3250 1613 
L 3250 1097 
L 2631 1097 
L 2631 0 
L 2069 0 
z
M 2069 1613 
L 2069 3678 
L 634 1613 
L 2069 1613 
z
" transform="scale(0.015625)"/>
       </defs>
       <use xlink:href="#ArialMT-34"/>
       <use xlink:href="#ArialMT-30" transform="translate(55.615234 0)"/>
       <use xlink:href="#ArialMT-30" transform="translate(111.230469 0)"/>
      </g>
     </g>
    </g>
   </g>
   <g id="patch_3">
    <path d="M 64.66197 172.9 
L 76.693355 172.9 
L 76.693355 172.9 
L 64.66197 172.9 
z
" clip-path="url(#pa2dabfe208)" style="stroke: #ffffff; stroke-width: 1.5; stroke-linejoin: miter"/>
   </g>
   <g id="patch_4">
    <path d="M 76.693355 172.9 
L 88.72474 172.9 
L 88.72474 172.9 
L 76.693355 172.9 
z
" clip-path="url(#pa2dabfe208)" style="stroke: #ffffff; stroke-width: 1.5; stroke-linejoin: miter"/>
   </g>
   <g id="patch_5">
    <path d="M 88.72474 172.9 
L 100.756126 172.9 
L 100.756126 172.9 
L 88.72474 172.9 
z
" clip-path="url(#pa2dabfe208)" style="stroke: #ffffff; stroke-width: 1.5; stroke-linejoin: miter"/>
   </g>
   <g id="patch_6">
    <path d="M 100.756126 172.9 
L 112.787511 172.9 
L 112.787511 172.9 
L 100.756126 172.9 
z
" clip-path="url(#pa2dabfe208)" style="stroke: #ffffff; stroke-width: 1.5; stroke-linejoin: miter"/>
   </g>
   <g id="patch_7">
    <path d="M 112.787511 172.9 
L 124.818896 172.9 
L 124.818896 172.9 
L 112.787511 172.9 
z
" clip-path="url(#pa2dabfe208)" style="stroke: #ffffff; stroke-width: 1.5; stroke-linejoin: miter"/>
   </g>
   <g id="patch_8">
    <path d="M 124.818896 172.9 
L 136.850281 172.9 
L 136.850281 172.9 
L 124.818896 172.9 
z
" clip-path="url(#pa2dabfe208)" style="stroke: #ffffff; stroke-width: 1.5; stroke-linejoin: miter"/>
   </g>
   <g id="patch_9">
    <path d="M 136.850281 172.9 
L 148.881667 172.9 
L 148.881667 172.611896 
L 136.850281 172.611896 
z
" clip-path="url(#pa2dabfe208)" style="stroke: #ffffff; stroke-width: 1.5; stroke-linejoin: miter"/>
   </g>
   <g id="patch_10">
    <path d="M 148.881667 172.9 
L 160.913052 172.9 
L 160.913052 146.394392 
L 148.881667 146.394392 
z
" clip-path="url(#pa2dabfe208)" style="stroke: #ffffff; stroke-width: 1.5; stroke-linejoin: miter"/>
   </g>
   <g id="patch_11">
    <path d="M 160.913052 172.9 
L 172.944437 172.9 
L 172.944437 27.119158 
L 160.913052 27.119158 
z
" clip-path="url(#pa2dabfe208)" style="stroke: #ffffff; stroke-width: 1.5; stroke-linejoin: miter"/>
   </g>
   <g id="patch_12">
    <path d="M 172.944437 172.9 
L 184.975823 172.9 
L 184.975823 46.422155 
L 172.944437 46.422155 
z
" clip-path="url(#pa2dabfe208)" style="stroke: #ffffff; stroke-width: 1.5; stroke-linejoin: miter"/>
   </g>
   <g id="patch_13">
    <path d="M 184.975823 172.9 
L 197.007208 172.9 
L 197.007208 147.54681 
L 184.975823 147.54681 
z
" clip-path="url(#pa2dabfe208)" style="stroke: #ffffff; stroke-width: 1.5; stroke-linejoin: miter"/>
   </g>
   <g id="patch_14">
    <path d="M 197.007208 172.9 
L 209.038593 172.9 
L 209.038593 172.323791 
L 197.007208 172.323791 
z
" clip-path="url(#pa2dabfe208)" style="stroke: #ffffff; stroke-width: 1.5; stroke-linejoin: miter"/>
   </g>
   <g id="patch_15">
    <path d="M 209.038593 172.9 
L 221.069978 172.9 
L 221.069978 172.9 
L 209.038593 172.9 
z
" clip-path="url(#pa2dabfe208)" style="stroke: #ffffff; stroke-width: 1.5; stroke-linejoin: miter"/>
   </g>
   <g id="patch_16">
    <path d="M 221.069978 172.9 
L 233.101364 172.9 
L 233.101364 172.9 
L 221.069978 172.9 
z
" clip-path="url(#pa2dabfe208)" style="stroke: #ffffff; stroke-width: 1.5; stroke-linejoin: miter"/>
   </g>
   <g id="patch_17">
    <path d="M 56.24 172.9 
L 56.24 16.2 
" style="fill: none; stroke: #999999; stroke-width: 1.875; stroke-linejoin: miter; stroke-linecap: square"/>
   </g>
   <g id="patch_18">
    <path d="M 241.523333 172.9 
L 241.523333 16.2 
" style="fill: none; stroke: #999999; stroke-width: 1.875; stroke-linejoin: miter; stroke-linecap: square"/>
   </g>
   <g id="patch_19">
    <path d="M 56.24 172.9 
L 241.523333 172.9 
" style="fill: none; stroke: #999999; stroke-width: 1.875; stroke-linejoin: miter; stroke-linecap: square"/>
   </g>
   <g id="patch_20">
    <path d="M 56.24 16.2 
L 241.523333 16.2 
" style="fill: none; stroke: #999999; stroke-width: 1.875; stroke-linejoin: miter; stroke-linecap: square"/>
   </g>
  </g>
  <g id="axes_2">
   <g id="patch_21">
    <path d="M 280.493333 172.9 
L 465.776667 172.9 
L 465.776667 16.2 
L 280.493333 16.2 
z
" style="fill: #ffffff"/>
   </g>
   <g id="matplotlib.axis_3">
    <g id="xtick_4">
     <g id="line2d_13">
      <path d="M 287.619615 172.9 
L 287.619615 16.2 
" clip-path="url(#p2fa9fa1f43)" style="fill: none; stroke-dasharray: 5.55,2.4; stroke-dashoffset: 0; stroke: #e6e6e6; stroke-width: 1.5"/>
     </g>
     <g id="line2d_14">
      <g>
       <use xlink:href="#m744be610cb" x="287.619615" y="172.9" style="fill: #262626; stroke: #262626; stroke-width: 1.875"/>
      </g>
     </g>
     <g id="text_7">
      <!-- 0 -->
      <g style="fill: #262626" transform="translate(283.031842 197.210391) scale(0.165 -0.165)">
       <use xlink:href="#ArialMT-30"/>
      </g>
     </g>
    </g>
    <g id="xtick_5">
     <g id="line2d_15">
      <path d="M 376.698141 172.9 
L 376.698141 16.2 
" clip-path="url(#p2fa9fa1f43)" style="fill: none; stroke-dasharray: 5.55,2.4; stroke-dashoffset: 0; stroke: #e6e6e6; stroke-width: 1.5"/>
     </g>
     <g id="line2d_16">
      <g>
       <use xlink:href="#m744be610cb" x="376.698141" y="172.9" style="fill: #262626; stroke: #262626; stroke-width: 1.875"/>
      </g>
     </g>
     <g id="text_8">
      <!-- 50 -->
      <g style="fill: #262626" transform="translate(367.522594 197.210391) scale(0.165 -0.165)">
       <use xlink:href="#ArialMT-35"/>
       <use xlink:href="#ArialMT-30" transform="translate(55.615234 0)"/>
      </g>
     </g>
    </g>
    <g id="xtick_6">
     <g id="line2d_17">
      <path d="M 465.776667 172.9 
L 465.776667 16.2 
" clip-path="url(#p2fa9fa1f43)" style="fill: none; stroke-dasharray: 5.55,2.4; stroke-dashoffset: 0; stroke: #e6e6e6; stroke-width: 1.5"/>
     </g>
     <g id="line2d_18">
      <g>
       <use xlink:href="#m744be610cb" x="465.776667" y="172.9" style="fill: #262626; stroke: #262626; stroke-width: 1.875"/>
      </g>
     </g>
     <g id="text_9">
      <!-- 100 -->
      <g style="fill: #262626" transform="translate(452.013346 197.210391) scale(0.165 -0.165)">
       <use xlink:href="#ArialMT-31"/>
       <use xlink:href="#ArialMT-30" transform="translate(55.615234 0)"/>
       <use xlink:href="#ArialMT-30" transform="translate(111.230469 0)"/>
      </g>
     </g>
    </g>
   </g>
   <g id="matplotlib.axis_4">
    <g id="ytick_4">
     <g id="line2d_19">
      <path d="M 280.493333 172.9 
L 465.776667 172.9 
" clip-path="url(#p2fa9fa1f43)" style="fill: none; stroke-dasharray: 5.55,2.4; stroke-dashoffset: 0; stroke: #e6e6e6; stroke-width: 1.5"/>
     </g>
     <g id="line2d_20">
      <g>
       <use xlink:href="#m363e707d10" x="280.493333" y="172.9" style="fill: #262626; stroke: #262626; stroke-width: 1.875"/>
      </g>
     </g>
    </g>
    <g id="ytick_5">
     <g id="line2d_21">
      <path d="M 280.493333 115.279114 
L 465.776667 115.279114 
" clip-path="url(#p2fa9fa1f43)" style="fill: none; stroke-dasharray: 5.55,2.4; stroke-dashoffset: 0; stroke: #e6e6e6; stroke-width: 1.5"/>
     </g>
     <g id="line2d_22">
      <g>
       <use xlink:href="#m363e707d10" x="280.493333" y="115.279114" style="fill: #262626; stroke: #262626; stroke-width: 1.875"/>
      </g>
     </g>
    </g>
    <g id="ytick_6">
     <g id="line2d_23">
      <path d="M 280.493333 57.658228 
L 465.776667 57.658228 
" clip-path="url(#p2fa9fa1f43)" style="fill: none; stroke-dasharray: 5.55,2.4; stroke-dashoffset: 0; stroke: #e6e6e6; stroke-width: 1.5"/>
     </g>
     <g id="line2d_24">
      <g>
       <use xlink:href="#m363e707d10" x="280.493333" y="57.658228" style="fill: #262626; stroke: #262626; stroke-width: 1.875"/>
      </g>
     </g>
    </g>
   </g>
   <g id="patch_22">
    <path d="M 287.619615 172.9 
L 297.800018 172.9 
L 297.800018 172.9 
L 287.619615 172.9 
z
" clip-path="url(#p2fa9fa1f43)" style="fill: #1b9e77; stroke: #ffffff; stroke-width: 1.5; stroke-linejoin: miter"/>
   </g>
   <g id="patch_23">
    <path d="M 297.800018 172.9 
L 307.980421 172.9 
L 307.980421 172.9 
L 297.800018 172.9 
z
" clip-path="url(#p2fa9fa1f43)" style="fill: #1b9e77; stroke: #ffffff; stroke-width: 1.5; stroke-linejoin: miter"/>
   </g>
   <g id="patch_24">
    <path d="M 307.980421 172.9 
L 318.160824 172.9 
L 318.160824 172.9 
L 307.980421 172.9 
z
" clip-path="url(#p2fa9fa1f43)" style="fill: #1b9e77; stroke: #ffffff; stroke-width: 1.5; stroke-linejoin: miter"/>
   </g>
   <g id="patch_25">
    <path d="M 318.160824 172.9 
L 328.341227 172.9 
L 328.341227 172.9 
L 318.160824 172.9 
z
" clip-path="url(#p2fa9fa1f43)" style="fill: #1b9e77; stroke: #ffffff; stroke-width: 1.5; stroke-linejoin: miter"/>
   </g>
   <g id="patch_26">
    <path d="M 328.341227 172.9 
L 338.52163 172.9 
L 338.52163 172.323791 
L 328.341227 172.323791 
z
" clip-path="url(#p2fa9fa1f43)" style="fill: #1b9e77; stroke: #ffffff; stroke-width: 1.5; stroke-linejoin: miter"/>
   </g>
   <g id="patch_27">
    <path d="M 338.52163 172.9 
L 348.702033 172.9 
L 348.702033 166.561703 
L 338.52163 166.561703 
z
" clip-path="url(#p2fa9fa1f43)" style="fill: #1b9e77; stroke: #ffffff; stroke-width: 1.5; stroke-linejoin: miter"/>
   </g>
   <g id="patch_28">
    <path d="M 348.702033 172.9 
L 358.882436 172.9 
L 358.882436 128.820022 
L 348.702033 128.820022 
z
" clip-path="url(#p2fa9fa1f43)" style="fill: #1b9e77; stroke: #ffffff; stroke-width: 1.5; stroke-linejoin: miter"/>
   </g>
   <g id="patch_29">
    <path d="M 358.882436 172.9 
L 369.062839 172.9 
L 369.062839 74.656389 
L 358.882436 74.656389 
z
" clip-path="url(#p2fa9fa1f43)" style="fill: #1b9e77; stroke: #ffffff; stroke-width: 1.5; stroke-linejoin: miter"/>
   </g>
   <g id="patch_30">
    <path d="M 369.062839 172.9 
L 379.243242 172.9 
L 379.243242 87.332984 
L 369.062839 87.332984 
z
" clip-path="url(#p2fa9fa1f43)" style="fill: #1b9e77; stroke: #ffffff; stroke-width: 1.5; stroke-linejoin: miter"/>
   </g>
   <g id="patch_31">
    <path d="M 379.243242 172.9 
L 389.423645 172.9 
L 389.423645 100.873892 
L 379.243242 100.873892 
z
" clip-path="url(#p2fa9fa1f43)" style="fill: #1b9e77; stroke: #ffffff; stroke-width: 1.5; stroke-linejoin: miter"/>
   </g>
   <g id="patch_32">
    <path d="M 389.423645 172.9 
L 399.604048 172.9 
L 399.604048 139.191782 
L 389.423645 139.191782 
z
" clip-path="url(#p2fa9fa1f43)" style="fill: #1b9e77; stroke: #ffffff; stroke-width: 1.5; stroke-linejoin: miter"/>
   </g>
   <g id="patch_33">
    <path d="M 399.604048 172.9 
L 409.784451 172.9 
L 409.784451 161.087718 
L 399.604048 161.087718 
z
" clip-path="url(#p2fa9fa1f43)" style="fill: #1b9e77; stroke: #ffffff; stroke-width: 1.5; stroke-linejoin: miter"/>
   </g>
   <g id="patch_34">
    <path d="M 409.784451 172.9 
L 419.964853 172.9 
L 419.964853 172.323791 
L 409.784451 172.323791 
z
" clip-path="url(#p2fa9fa1f43)" style="fill: #1b9e77; stroke: #ffffff; stroke-width: 1.5; stroke-linejoin: miter"/>
   </g>
   <g id="patch_35">
    <path d="M 419.964853 172.9 
L 430.145256 172.9 
L 430.145256 172.9 
L 419.964853 172.9 
z
" clip-path="url(#p2fa9fa1f43)" style="fill: #1b9e77; stroke: #ffffff; stroke-width: 1.5; stroke-linejoin: miter"/>
   </g>
   <g id="patch_36">
    <path d="M 280.493333 172.9 
L 280.493333 16.2 
" style="fill: none; stroke: #999999; stroke-width: 1.875; stroke-linejoin: miter; stroke-linecap: square"/>
   </g>
   <g id="patch_37">
    <path d="M 465.776667 172.9 
L 465.776667 16.2 
" style="fill: none; stroke: #999999; stroke-width: 1.875; stroke-linejoin: miter; stroke-linecap: square"/>
   </g>
   <g id="patch_38">
    <path d="M 280.493333 172.9 
L 465.776667 172.9 
" style="fill: none; stroke: #999999; stroke-width: 1.875; stroke-linejoin: miter; stroke-linecap: square"/>
   </g>
   <g id="patch_39">
    <path d="M 280.493333 16.2 
L 465.776667 16.2 
" style="fill: none; stroke: #999999; stroke-width: 1.875; stroke-linejoin: miter; stroke-linecap: square"/>
   </g>
  </g>
  <g id="axes_3">
   <g id="patch_40">
    <path d="M 504.746667 172.9 
L 690.03 172.9 
L 690.03 16.2 
L 504.746667 16.2 
z
" style="fill: #ffffff"/>
   </g>
   <g id="matplotlib.axis_5">
    <g id="xtick_7">
     <g id="line2d_25">
      <path d="M 511.872949 172.9 
L 511.872949 16.2 
" clip-path="url(#p67f9c95e11)" style="fill: none; stroke-dasharray: 5.55,2.4; stroke-dashoffset: 0; stroke: #e6e6e6; stroke-width: 1.5"/>
     </g>
     <g id="line2d_26">
      <g>
       <use xlink:href="#m744be610cb" x="511.872949" y="172.9" style="fill: #262626; stroke: #262626; stroke-width: 1.875"/>
      </g>
     </g>
     <g id="text_10">
      <!-- 0 -->
      <g style="fill: #262626" transform="translate(507.285175 197.210391) scale(0.165 -0.165)">
       <use xlink:href="#ArialMT-30"/>
      </g>
     </g>
    </g>
    <g id="xtick_8">
     <g id="line2d_27">
      <path d="M 600.951474 172.9 
L 600.951474 16.2 
" clip-path="url(#p67f9c95e11)" style="fill: none; stroke-dasharray: 5.55,2.4; stroke-dashoffset: 0; stroke: #e6e6e6; stroke-width: 1.5"/>
     </g>
     <g id="line2d_28">
      <g>
       <use xlink:href="#m744be610cb" x="600.951474" y="172.9" style="fill: #262626; stroke: #262626; stroke-width: 1.875"/>
      </g>
     </g>
     <g id="text_11">
      <!-- 50 -->
      <g style="fill: #262626" transform="translate(591.775927 197.210391) scale(0.165 -0.165)">
       <use xlink:href="#ArialMT-35"/>
       <use xlink:href="#ArialMT-30" transform="translate(55.615234 0)"/>
      </g>
     </g>
    </g>
    <g id="xtick_9">
     <g id="line2d_29">
      <path d="M 690.03 172.9 
L 690.03 16.2 
" clip-path="url(#p67f9c95e11)" style="fill: none; stroke-dasharray: 5.55,2.4; stroke-dashoffset: 0; stroke: #e6e6e6; stroke-width: 1.5"/>
     </g>
     <g id="line2d_30">
      <g>
       <use xlink:href="#m744be610cb" x="690.03" y="172.9" style="fill: #262626; stroke: #262626; stroke-width: 1.875"/>
      </g>
     </g>
     <g id="text_12">
      <!-- 100 -->
      <g style="fill: #262626" transform="translate(676.26668 197.210391) scale(0.165 -0.165)">
       <use xlink:href="#ArialMT-31"/>
       <use xlink:href="#ArialMT-30" transform="translate(55.615234 0)"/>
       <use xlink:href="#ArialMT-30" transform="translate(111.230469 0)"/>
      </g>
     </g>
    </g>
   </g>
   <g id="matplotlib.axis_6">
    <g id="ytick_7">
     <g id="line2d_31">
      <path d="M 504.746667 172.9 
L 690.03 172.9 
" clip-path="url(#p67f9c95e11)" style="fill: none; stroke-dasharray: 5.55,2.4; stroke-dashoffset: 0; stroke: #e6e6e6; stroke-width: 1.5"/>
     </g>
     <g id="line2d_32">
      <g>
       <use xlink:href="#m363e707d10" x="504.746667" y="172.9" style="fill: #262626; stroke: #262626; stroke-width: 1.875"/>
      </g>
     </g>
    </g>
    <g id="ytick_8">
     <g id="line2d_33">
      <path d="M 504.746667 115.279114 
L 690.03 115.279114 
" clip-path="url(#p67f9c95e11)" style="fill: none; stroke-dasharray: 5.55,2.4; stroke-dashoffset: 0; stroke: #e6e6e6; stroke-width: 1.5"/>
     </g>
     <g id="line2d_34">
      <g>
       <use xlink:href="#m363e707d10" x="504.746667" y="115.279114" style="fill: #262626; stroke: #262626; stroke-width: 1.875"/>
      </g>
     </g>
    </g>
    <g id="ytick_9">
     <g id="line2d_35">
      <path d="M 504.746667 57.658228 
L 690.03 57.658228 
" clip-path="url(#p67f9c95e11)" style="fill: none; stroke-dasharray: 5.55,2.4; stroke-dashoffset: 0; stroke: #e6e6e6; stroke-width: 1.5"/>
     </g>
     <g id="line2d_36">
      <g>
       <use xlink:href="#m363e707d10" x="504.746667" y="57.658228" style="fill: #262626; stroke: #262626; stroke-width: 1.875"/>
      </g>
     </g>
    </g>
   </g>
   <g id="patch_41">
    <path d="M 511.872949 172.9 
L 522.053352 172.9 
L 522.053352 172.9 
L 511.872949 172.9 
z
" clip-path="url(#p67f9c95e11)" style="fill: #7570b3; stroke: #ffffff; stroke-width: 1.5; stroke-linejoin: miter"/>
   </g>
   <g id="patch_42">
    <path d="M 522.053352 172.9 
L 532.233755 172.9 
L 532.233755 172.9 
L 522.053352 172.9 
z
" clip-path="url(#p67f9c95e11)" style="fill: #7570b3; stroke: #ffffff; stroke-width: 1.5; stroke-linejoin: miter"/>
   </g>
   <g id="patch_43">
    <path d="M 532.233755 172.9 
L 542.414158 172.9 
L 542.414158 172.9 
L 532.233755 172.9 
z
" clip-path="url(#p67f9c95e11)" style="fill: #7570b3; stroke: #ffffff; stroke-width: 1.5; stroke-linejoin: miter"/>
   </g>
   <g id="patch_44">
    <path d="M 542.414158 172.9 
L 552.59456 172.9 
L 552.59456 172.9 
L 542.414158 172.9 
z
" clip-path="url(#p67f9c95e11)" style="fill: #7570b3; stroke: #ffffff; stroke-width: 1.5; stroke-linejoin: miter"/>
   </g>
   <g id="patch_45">
    <path d="M 552.59456 172.9 
L 562.774963 172.9 
L 562.774963 172.9 
L 552.59456 172.9 
z
" clip-path="url(#p67f9c95e11)" style="fill: #7570b3; stroke: #ffffff; stroke-width: 1.5; stroke-linejoin: miter"/>
   </g>
   <g id="patch_46">
    <path d="M 562.774963 172.9 
L 572.955366 172.9 
L 572.955366 172.035687 
L 562.774963 172.035687 
z
" clip-path="url(#p67f9c95e11)" style="fill: #7570b3; stroke: #ffffff; stroke-width: 1.5; stroke-linejoin: miter"/>
   </g>
   <g id="patch_47">
    <path d="M 572.955366 172.9 
L 583.135769 172.9 
L 583.135769 159.070987 
L 572.955366 159.070987 
z
" clip-path="url(#p67f9c95e11)" style="fill: #7570b3; stroke: #ffffff; stroke-width: 1.5; stroke-linejoin: miter"/>
   </g>
   <g id="patch_48">
    <path d="M 583.135769 172.9 
L 593.316172 172.9 
L 593.316172 72.927762 
L 583.135769 72.927762 
z
" clip-path="url(#p67f9c95e11)" style="fill: #7570b3; stroke: #ffffff; stroke-width: 1.5; stroke-linejoin: miter"/>
   </g>
   <g id="patch_49">
    <path d="M 593.316172 172.9 
L 603.496575 172.9 
L 603.496575 23.661905 
L 593.316172 23.661905 
z
" clip-path="url(#p67f9c95e11)" style="fill: #7570b3; stroke: #ffffff; stroke-width: 1.5; stroke-linejoin: miter"/>
   </g>
   <g id="patch_50">
    <path d="M 603.496575 172.9 
L 613.676978 172.9 
L 613.676978 117.00774 
L 603.496575 117.00774 
z
" clip-path="url(#p67f9c95e11)" style="fill: #7570b3; stroke: #ffffff; stroke-width: 1.5; stroke-linejoin: miter"/>
   </g>
   <g id="patch_51">
    <path d="M 613.676978 172.9 
L 623.857381 172.9 
L 623.857381 168.002225 
L 613.676978 168.002225 
z
" clip-path="url(#p67f9c95e11)" style="fill: #7570b3; stroke: #ffffff; stroke-width: 1.5; stroke-linejoin: miter"/>
   </g>
   <g id="patch_52">
    <path d="M 623.857381 172.9 
L 634.037784 172.9 
L 634.037784 172.323791 
L 623.857381 172.323791 
z
" clip-path="url(#p67f9c95e11)" style="fill: #7570b3; stroke: #ffffff; stroke-width: 1.5; stroke-linejoin: miter"/>
   </g>
   <g id="patch_53">
    <path d="M 634.037784 172.9 
L 644.218187 172.9 
L 644.218187 172.9 
L 634.037784 172.9 
z
" clip-path="url(#p67f9c95e11)" style="fill: #7570b3; stroke: #ffffff; stroke-width: 1.5; stroke-linejoin: miter"/>
   </g>
   <g id="patch_54">
    <path d="M 644.218187 172.9 
L 654.39859 172.9 
L 654.39859 172.611896 
L 644.218187 172.611896 
z
" clip-path="url(#p67f9c95e11)" style="fill: #7570b3; stroke: #ffffff; stroke-width: 1.5; stroke-linejoin: miter"/>
   </g>
   <g id="patch_55">
    <path d="M 504.746667 172.9 
L 504.746667 16.2 
" style="fill: none; stroke: #999999; stroke-width: 1.875; stroke-linejoin: miter; stroke-linecap: square"/>
   </g>
   <g id="patch_56">
    <path d="M 690.03 172.9 
L 690.03 16.2 
" style="fill: none; stroke: #999999; stroke-width: 1.875; stroke-linejoin: miter; stroke-linecap: square"/>
   </g>
   <g id="patch_57">
    <path d="M 504.746667 172.9 
L 690.03 172.9 
" style="fill: none; stroke: #999999; stroke-width: 1.875; stroke-linejoin: miter; stroke-linecap: square"/>
   </g>
   <g id="patch_58">
    <path d="M 504.746667 16.2 
L 690.03 16.2 
" style="fill: none; stroke: #999999; stroke-width: 1.875; stroke-linejoin: miter; stroke-linecap: square"/>
   </g>
  </g>
 </g>
 <defs>
  <clipPath id="pa2dabfe208">
   <rect x="56.24" y="16.2" width="185.283333" height="156.7"/>
  </clipPath>
  <clipPath id="p2fa9fa1f43">
   <rect x="280.493333" y="16.2" width="185.283333" height="156.7"/>
  </clipPath>
  <clipPath id="p67f9c95e11">
   <rect x="504.746667" y="16.2" width="185.283333" height="156.7"/>
  </clipPath>
 </defs>
</svg>
